<svg xmlns="http://www.w3.org/2000/svg" version="1.1" xmlns:xlink="http://www.w3.org/1999/xlink" xmlns:svgjs="http://svgjs.dev/svgjs" viewBox="0 0 1422 800"><g shape-rendering="crispEdges" stroke-linejoin="round" fill="none" stroke-width="2" stroke="hsl(220, 62%, 45%)"><polygon points="1422,0 1244.25,0 1422,100"></polygon><polygon points="1244.25,0 1244.25,100 1066.5,100"></polygon><polygon points="1066.5,100 1066.5,200 1244.25,100"></polygon><polygon points="1422,100 1244.25,100 1244.25,200"></polygon><polygon points="888.75,100 1066.5,100 888.75,0"></polygon><polygon points="888.75,0 711,100 888.75,100"></polygon><polygon points="888.75,100 711,200 888.75,200"></polygon><polygon points="977.625,100 977.625,150 1066.5,150"></polygon><polygon points="977.625,100 977.625,150 888.75,100"></polygon><polygon points="888.75,200 888.75,150 977.625,150"></polygon><polygon points="977.625,150 1066.5,150 1066.5,200"></polygon><polygon points="1066.5,200 1066.5,300 888.75,300"></polygon><polygon points="888.75,200 799.875,250 799.875,200"></polygon><polygon points="711,250 711,200 799.875,250"></polygon><polygon points="799.875,250 799.875,300 711,250"></polygon><polygon points="799.875,300 799.875,250 888.75,250"></polygon><polygon points="799.875,300 888.75,300 888.75,350"></polygon><polygon points="799.875,300 799.875,350 711,300"></polygon><polygon points="799.875,350 799.875,400 711,400"></polygon><polygon points="888.75,350 799.875,350 799.875,400"></polygon><polygon points="1066.5,400 888.75,400 1066.5,300"></polygon><polygon points="1422,300 1244.25,200 1422,200"></polygon><polygon points="1244.25,300 1066.5,300 1066.5,200"></polygon><polygon points="1244.25,300 1244.25,400 1066.5,400"></polygon><polygon points="1422,400 1244.25,300 1244.25,400"></polygon><polygon points="711,0 711,100 533.25,100"></polygon><polygon points="355.5,100 533.25,100 533.25,0"></polygon><polygon points="533.25,100 355.5,100 355.5,200"></polygon><polygon points="711,100 711,200 533.25,100"></polygon><polygon points="355.5,0 177.75,100 177.75,0"></polygon><polygon points="177.75,100 0,100 0,0"></polygon><polygon points="0,100 177.75,200 177.75,100"></polygon><polygon points="177.75,200 355.5,100 177.75,100"></polygon><polygon points="355.5,200 177.75,300 355.5,300"></polygon><polygon points="0,200 177.75,300 0,300"></polygon><polygon points="177.75,400 0,300 0,400"></polygon><polygon points="177.75,300 355.5,400 355.5,300"></polygon><polygon points="711,200 711,300 533.25,200"></polygon><polygon points="355.5,300 533.25,300 533.25,200"></polygon><polygon points="444.375,350 533.25,350 444.375,300"></polygon><polygon points="355.5,300 444.375,350 444.375,300"></polygon><polygon points="444.375,350 355.5,350 355.5,400"></polygon><polygon points="533.25,350 533.25,400 444.375,400"></polygon><polygon points="711,300 711,400 533.25,400"></polygon><polygon points="533.25,500 533.25,400 711,500"></polygon><polygon points="355.5,400 533.25,500 533.25,400"></polygon><polygon points="355.5,600 533.25,500 533.25,600"></polygon><polygon points="711,600 711,500 533.25,600"></polygon><polygon points="177.75,400 355.5,500 355.5,400"></polygon><polygon points="177.75,500 177.75,400 0,500"></polygon><polygon points="0,600 177.75,600 0,500"></polygon><polygon points="355.5,500 355.5,600 177.75,600"></polygon><polygon points="355.5,700 177.75,600 177.75,700"></polygon><polygon points="0,600 0,700 177.75,600"></polygon><polygon points="177.75,800 0,700 0,800"></polygon><polygon points="355.5,800 177.75,800 355.5,700"></polygon><polygon points="711,600 711,700 533.25,600"></polygon><polygon points="355.5,600 533.25,600 533.25,700"></polygon><polygon points="533.25,700 533.25,800 355.5,700"></polygon><polygon points="533.25,700 533.25,800 711,700"></polygon><polygon points="1422,400 1422,500 1244.25,400"></polygon><polygon points="1244.25,500 1066.5,400 1244.25,400"></polygon><polygon points="1066.5,600 1066.5,500 1244.25,500"></polygon><polygon points="1244.25,600 1422,500 1244.25,500"></polygon><polygon points="1066.5,400 888.75,400 888.75,500"></polygon><polygon points="888.75,500 888.75,400 711,400"></polygon><polygon points="888.75,600 888.75,500 711,500"></polygon><polygon points="1066.5,500 888.75,500 888.75,600"></polygon><polygon points="888.75,700 1066.5,600 1066.5,700"></polygon><polygon points="711,600 711,700 888.75,700"></polygon><polygon points="888.75,700 711,800 711,700"></polygon><polygon points="1066.5,700 1066.5,800 888.75,800"></polygon><polygon points="1422,600 1422,700 1244.25,700"></polygon><polygon points="1066.5,600 1244.25,700 1244.25,600"></polygon><polygon points="1066.5,800 1244.25,800 1066.5,700"></polygon><polygon points="1422,700 1422,800 1244.25,800"></polygon></g><g fill="hsl(220, 62%, 45%)" stroke-width="3" stroke="hsl(220, 43%, 13%)"></g></svg>