<svg xmlns="http://www.w3.org/2000/svg" version="1.1" xmlns:xlink="http://www.w3.org/1999/xlink" xmlns:svgjs="http://svgjs.dev/svgjs" viewBox="0 0 2400 800"><defs><linearGradient x1="50%" y1="0%" x2="50%" y2="100%" id="sssurf-grad"><stop stop-color="hsl(208, 77%, 50%)" stop-opacity="1" offset="0%"></stop><stop stop-color="hsl(208, 74%, 93%)" stop-opacity="1" offset="100%"></stop></linearGradient></defs><g fill="url(#sssurf-grad)" transform="matrix(1,0,0,1,0,-90.25198364257812)"><path d="M 0 300.50396107962547 Q 450 616.7660036714781 600 332.20652777244356 Q 1050 533.347587782451 1200 317.91278867888616 Q 1650 452.35597568402676 1800 306.5606425977626 Q 2250 543.1155602564992 2400 309.4172180485472 L 2400 800 L 0 800 L 0 325.27369107528347 Z" transform="matrix(1,0,0,1,0,35)" opacity="0.05"></path><path d="M 0 300.50396107962547 Q 450 616.7660036714781 600 332.20652777244356 Q 1050 533.347587782451 1200 317.91278867888616 Q 1650 452.35597568402676 1800 306.5606425977626 Q 2250 543.1155602564992 2400 309.4172180485472 L 2400 800 L 0 800 L 0 325.27369107528347 Z" transform="matrix(1,0,0,1,0,70)" opacity="0.21"></path><path d="M 0 300.50396107962547 Q 450 616.7660036714781 600 332.20652777244356 Q 1050 533.347587782451 1200 317.91278867888616 Q 1650 452.35597568402676 1800 306.5606425977626 Q 2250 543.1155602564992 2400 309.4172180485472 L 2400 800 L 0 800 L 0 325.27369107528347 Z" transform="matrix(1,0,0,1,0,105)" opacity="0.37"></path><path d="M 0 300.50396107962547 Q 450 616.7660036714781 600 332.20652777244356 Q 1050 533.347587782451 1200 317.91278867888616 Q 1650 452.35597568402676 1800 306.5606425977626 Q 2250 543.1155602564992 2400 309.4172180485472 L 2400 800 L 0 800 L 0 325.27369107528347 Z" transform="matrix(1,0,0,1,0,140)" opacity="0.53"></path><path d="M 0 300.50396107962547 Q 450 616.7660036714781 600 332.20652777244356 Q 1050 533.347587782451 1200 317.91278867888616 Q 1650 452.35597568402676 1800 306.5606425977626 Q 2250 543.1155602564992 2400 309.4172180485472 L 2400 800 L 0 800 L 0 325.27369107528347 Z" transform="matrix(1,0,0,1,0,175)" opacity="0.68"></path><path d="M 0 300.50396107962547 Q 450 616.7660036714781 600 332.20652777244356 Q 1050 533.347587782451 1200 317.91278867888616 Q 1650 452.35597568402676 1800 306.5606425977626 Q 2250 543.1155602564992 2400 309.4172180485472 L 2400 800 L 0 800 L 0 325.27369107528347 Z" transform="matrix(1,0,0,1,0,210)" opacity="0.84"></path><path d="M 0 300.50396107962547 Q 450 616.7660036714781 600 332.20652777244356 Q 1050 533.347587782451 1200 317.91278867888616 Q 1650 452.35597568402676 1800 306.5606425977626 Q 2250 543.1155602564992 2400 309.4172180485472 L 2400 800 L 0 800 L 0 325.27369107528347 Z" transform="matrix(1,0,0,1,0,245)" opacity="1"></path></g></svg>